<svg width="846" height="846" viewBox="0 0 846 846" fill="none" xmlns="http://www.w3.org/2000/svg">
<path d="M385.699 6.43555C409.203 0.250847 480.948 -18.2999 518.062 59.624C547.401 121.222 520.537 186.201 503.219 205.579C499.921 211.764 533.396 219.186 560.115 214.238C593.514 208.054 676.121 175.023 722.268 107.498C758.228 54.8776 790.13 47.7339 816.887 64.0332C843.644 80.3325 846.373 114.543 826.581 156.104C801.841 208.054 724.613 289.438 666.479 315.412C632.787 330.466 782.453 423.025 826.581 612.773C861.869 764.512 847.419 846.008 796.731 846.009C746.044 846.009 726.68 820.455 719.688 753.531C711.029 670.658 696.185 608.813 645.468 566.758C624.942 765.676 443.072 802.156 320.145 768.781C303.518 764.267 259.665 738.889 267.397 702.808C274.819 668.174 305.276 649.368 341.473 653.521C416.929 662.18 494.372 670.374 519.854 566.758C545.335 463.141 472.268 403.739 436.372 397.555C400.476 391.37 323.247 399.719 259.304 487.108C235.045 520.262 195.393 516.87 176.426 504.501C157.459 492.132 154.097 463.216 166.883 432.318C181.727 396.448 212.97 359.939 267.397 323.656C300.054 301.887 368.386 276.083 399.311 262.477C407.969 256.704 420.092 241.202 399.311 225.369C378.529 209.537 342.408 191.974 331.275 156.104C322.369 127.407 331.052 98.1839 305.276 98.1836C225.138 98.1836 259.304 179.757 157.291 166.314C79.8003 156.103 57.6441 154.906 36.2754 131.202C14.9066 107.498 -9.80972 64.7121 62.7002 32.9102C116.747 9.20589 191.928 9.20587 267.397 32.9102C296.91 42.1797 322.204 55.4998 331.275 44.7803C341.584 34.885 366.897 11.3832 385.699 6.43555ZM92.5264 491.197C119.796 491.197 166.37 521.209 166.506 521.296C166.506 521.296 247.008 550.023 254.345 589.183C261.681 628.342 213.177 676.884 213.177 676.884C213.05 677.017 174.184 717.668 138.993 713.596C103.745 709.517 50.543 671.173 50.543 671.173C50.4889 671.14 0.000389256 640.202 0 607.131C9.72531e-05 574.042 24.863 540.64 36.2764 521.296C47.6739 501.978 65.2171 491.197 92.5264 491.197ZM450.012 110.604C424.305 106.178 389.25 84.3651 384.821 110.093C377.347 153.512 410.136 188.495 435.843 192.92C461.55 197.345 499.564 170.77 503.992 145.042C508.42 119.314 475.719 115.029 450.012 110.604Z" fill="white"/>
</svg>
